 <svg width="320" height="330" viewBox="0 0 320 330" fill="none" xmlns="http://www.w3.org/2000/svg">
<path d="M184.25 5.5L210.337 35.497L247.25 23.1825L255.524 62.832L293.371 71.5L281.617 110.171L310.25 137.5L281.617 164.829L293.371 203.5L255.524 212.168L247.25 251.817L210.337 239.503L184.25 269.5L158.163 239.503L121.25 251.817L112.976 212.168L75.1288 203.5L86.8835 164.829L58.25 137.5L86.8835 110.171L75.1288 71.5L112.976 62.832L121.25 23.1825L158.163 35.497L184.25 5.5Z" fill="#F9E109"/>
<path d="M164.62 214.264L136.842 223.526L130.611 193.694L102.135 187.165L110.976 158.07L89.4297 137.5L110.976 116.93L102.135 87.835L130.611 81.3066L136.842 51.4746L164.62 60.7365L184.25 38.1646L203.88 60.7365L231.657 51.4746L237.889 81.3066L266.365 87.835L257.524 116.93L279.07 137.5L257.524 158.07L266.365 187.165L237.889 193.694L231.657 223.526L203.88 214.264L184.25 236.836L164.62 214.264Z" fill="#FCBC04"/>
<path d="M93.0309 270.508L56.6589 292.508L25.1589 235.352L61.5309 213.352L93.0309 270.508Z" fill="#C4F236"/>
<path d="M21.5 294.718L56.654 292.507L25.154 235.351L5.75 266.14L21.5 294.718Z" fill="#57B7EB"/>
<path d="M101.515 322.531C103.334 321.432 104.894 319.918 106.08 318.103C107.265 316.288 108.046 314.216 108.365 312.042C108.684 309.868 108.533 307.646 107.923 305.542C107.312 303.437 106.258 301.503 104.839 299.882L83.933 276.006L65.747 287.006L82.3633 317.152C83.2834 318.823 84.5087 320.288 85.9692 321.462C87.4298 322.637 89.097 323.499 90.8755 323.998C92.6541 324.498 94.5091 324.625 96.3347 324.373C98.1603 324.122 99.9207 323.496 101.515 322.531Z" fill="#57B7EB"/>
<path d="M114.682 155.793L167.182 251.058C142.548 249.392 117.995 255.403 96.617 268.334L93.026 270.534L61.526 213.378L65.117 211.205C86.499 198.267 103.746 178.986 114.682 155.793V155.793Z" fill="#84D2F4"/>
<path d="M79.901 246.691L93.026 270.506L96.617 268.306C117.991 255.364 142.547 249.352 167.182 251.031L130.432 184.349C121.037 210.593 103.218 232.595 80.0322 246.581L79.901 246.691Z" fill="#57B7EB"/>
<path d="M21.311 250.377L18.686 245.614L25.175 235.351L56.675 292.507L21.5 294.707L15.9875 284.697C20.5126 280.494 23.5138 274.783 24.4838 268.53C25.4537 262.277 24.333 255.864 21.311 250.377V250.377Z" fill="#4891D3"/>
<path d="M65.747 287.006L73.7008 301.438C76.6778 300.166 79.9552 299.879 83.0926 300.616C86.23 301.352 89.0772 303.077 91.2515 305.558L104.214 320.408C106.855 317.751 108.4 314.117 108.519 310.283C108.638 306.449 107.321 302.718 104.849 299.887L83.933 276.023L65.747 287.006Z" fill="#4891D3"/>
<path d="M79.901 246.692L93.026 270.507L56.654 292.507L25.154 235.351L28.6768 239.168C35.1927 246.224 43.7726 250.797 53.0535 252.16C62.3344 253.524 71.7839 251.599 79.901 246.692V246.692Z" fill="#A1D51C"/>
<path d="M299.75 275H268.25L284 253L299.75 275Z" fill="#F9E109"/>
<path d="M284 258.5V253L268.25 275H299.75C295.573 275 291.567 273.262 288.613 270.167C285.659 267.073 284 262.876 284 258.5V258.5Z" fill="#FCBC04"/>
<path d="M68.75 27.5H37.25L53 5.5L68.75 27.5Z" fill="#F9E109"/>
<path d="M53 11V5.5L37.25 27.5H68.75C64.5728 27.5 60.5668 25.7616 57.6131 22.6673C54.6594 19.5729 53 15.3761 53 11Z" fill="#FCBC04"/>
<g filter="url(#filter0_d)">
<path d="M111.367 68.1235C112.727 68.436 114.149 68.1701 115.322 67.3842C116.494 66.5983 117.321 65.3567 117.62 63.9325L124.665 30.1735L156.092 40.651C157.048 40.9698 158.072 40.9947 159.041 40.7227C160.011 40.4507 160.886 39.8933 161.562 39.1165L183.77 13.5855L205.977 39.1275C206.654 39.9043 207.528 40.4618 208.498 40.7337C209.468 41.0057 210.491 40.9808 211.448 40.662L242.874 30.1735L249.92 63.9325C250.135 64.959 250.627 65.8993 251.337 66.6421C252.047 67.3848 252.945 67.8989 253.925 68.1235L286.145 75.5045L276.138 108.422C275.833 109.425 275.81 110.499 276.07 111.516C276.331 112.533 276.865 113.45 277.608 114.158L301.973 137.423L291.395 147.549C290.872 148.032 290.446 148.618 290.142 149.275C289.838 149.932 289.662 150.646 289.624 151.375C289.586 152.104 289.687 152.833 289.92 153.521C290.154 154.208 290.516 154.84 290.986 155.38C291.455 155.919 292.022 156.356 292.654 156.663C293.286 156.971 293.97 157.143 294.666 157.171C295.363 157.199 296.057 157.081 296.71 156.825C297.362 156.568 297.959 156.179 298.466 155.678L313.329 141.488C313.869 140.973 314.3 140.345 314.595 139.645C314.89 138.945 315.042 138.189 315.042 137.423C315.042 136.658 314.89 135.902 314.595 135.202C314.3 134.502 313.869 133.874 313.329 133.359L287.184 108.4L297.889 73.0735C298.108 72.3462 298.18 71.5792 298.101 70.8211C298.022 70.063 297.793 69.3305 297.429 68.67C297.065 68.0096 296.574 67.4356 295.987 66.9845C295.4 66.5335 294.73 66.2152 294.02 66.05L259.464 58.1355L251.899 21.9235C251.743 21.1761 251.439 20.4712 251.008 19.8536C250.577 19.2361 250.028 18.7195 249.395 18.337C248.763 17.9545 248.061 17.7144 247.335 17.6321C246.609 17.5498 245.875 17.627 245.179 17.859L211.474 29.101L187.649 1.71646C187.145 1.17328 186.542 0.741528 185.875 0.446712C185.209 0.151896 184.493 0 183.77 0C183.046 0 182.33 0.151896 181.664 0.446712C180.998 0.741528 180.394 1.17328 179.89 1.71646L156.065 29.112L122.345 17.87C121.65 17.6406 120.918 17.565 120.195 17.6479C119.471 17.7309 118.772 17.9705 118.141 18.3517C117.511 18.7329 116.963 19.2473 116.533 19.8622C116.102 20.477 115.798 21.179 115.64 21.9235L107.361 61.5785C107.065 63.0028 107.32 64.4923 108.071 65.7196C108.822 66.9468 110.008 67.8115 111.367 68.1235Z" fill="#39519D"/>
</g>
<path d="M167.831 66.6604L149.645 55.6604C148.439 54.9311 147.006 54.7335 145.661 55.111C144.316 55.4885 143.169 56.4102 142.473 57.6734L121.473 95.7774C121.123 96.4032 120.894 97.0953 120.801 97.8139C120.707 98.5326 120.75 99.2636 120.927 99.9648C121.104 100.666 121.411 101.324 121.832 101.9C122.252 102.476 122.778 102.959 123.377 103.322C123.977 103.685 124.639 103.92 125.326 104.013C126.012 104.107 126.71 104.057 127.378 103.867C128.046 103.677 128.672 103.35 129.219 102.906C129.766 102.461 130.224 101.908 130.566 101.277L138.441 86.9774L147.534 92.4774C148.131 92.8443 148.792 93.0837 149.478 93.182C150.164 93.2802 150.862 93.2354 151.531 93.05C152.201 92.8646 152.828 92.5423 153.378 92.1017C153.928 91.6611 154.39 91.1109 154.736 90.4827C155.082 89.8546 155.306 89.1609 155.396 88.4416C155.485 87.7223 155.437 86.9916 155.256 86.2916C155.075 85.5916 154.763 84.9361 154.339 84.3629C153.914 83.7896 153.386 83.3099 152.784 82.9514L143.691 77.4514L148.941 67.9254L162.591 76.1754C163.188 76.5423 163.849 76.7817 164.535 76.88C165.221 76.9782 165.919 76.9334 166.588 76.748C167.258 76.5626 167.885 76.2403 168.435 75.7997C168.985 75.3591 169.447 74.8089 169.793 74.1807C170.139 73.5526 170.363 72.8589 170.453 72.1396C170.542 71.4203 170.494 70.6896 170.313 69.9896C170.132 69.2896 169.82 68.6341 169.396 68.0609C168.971 67.4876 168.443 67.0079 167.841 66.6494L167.831 66.6604Z" fill="#39519D"/>
<path d="M230.783 117.436C231.989 118.154 233.416 118.344 234.754 117.963C236.092 117.583 237.232 116.663 237.925 115.405C238.618 114.147 238.808 112.654 238.454 111.249C238.1 109.845 237.229 108.645 236.033 107.91L217.842 96.9104C216.636 96.1811 215.203 95.9835 213.858 96.361C212.514 96.7385 211.367 97.6602 210.671 98.9234L189.671 137.027C188.975 138.291 188.786 139.792 189.146 141.201C189.507 142.61 190.386 143.811 191.592 144.54L209.783 155.54C210.581 156.025 211.487 156.279 212.408 156.277C213.564 156.277 214.687 155.878 215.604 155.141C216.521 154.404 217.18 153.37 217.479 152.201C217.778 151.032 217.701 149.791 217.259 148.673C216.816 147.554 216.034 146.62 215.033 146.014L201.383 137.764L206.633 128.238L215.726 133.738C216.324 134.105 216.984 134.345 217.67 134.443C218.356 134.541 219.054 134.496 219.723 134.311C220.393 134.126 221.021 133.803 221.571 133.363C222.121 132.922 222.582 132.372 222.928 131.744C223.274 131.116 223.499 130.422 223.588 129.703C223.677 128.983 223.63 128.253 223.448 127.553C223.267 126.853 222.955 126.197 222.531 125.624C222.107 125.051 221.578 124.571 220.976 124.212L211.889 118.712L217.139 109.186L230.783 117.436Z" fill="#39519D"/>
<path d="M267.155 139.436C268.361 140.154 269.788 140.344 271.126 139.963C272.464 139.583 273.604 138.663 274.297 137.405C274.99 136.147 275.18 134.654 274.826 133.249C274.472 131.845 273.601 130.645 272.405 129.91L254.214 118.91C253.008 118.181 251.575 117.983 250.23 118.361C248.886 118.738 247.739 119.66 247.043 120.923L226.043 159.027C225.347 160.291 225.158 161.792 225.518 163.201C225.879 164.61 226.758 165.811 227.964 166.54L246.155 177.54C247.361 178.258 248.788 178.448 250.126 178.067C251.464 177.687 252.604 176.767 253.297 175.509C253.99 174.251 254.18 172.758 253.826 171.353C253.472 169.949 252.601 168.749 251.405 168.014L237.755 159.764L243.005 150.238L252.104 155.738C252.901 156.223 253.807 156.477 254.729 156.475C255.884 156.475 257.008 156.076 257.925 155.339C258.841 154.602 259.5 153.568 259.8 152.399C260.099 151.23 260.021 149.989 259.579 148.871C259.137 147.752 258.354 146.818 257.354 146.212L248.261 140.712L253.511 131.186L267.155 139.436Z" fill="#39519D"/>
<path d="M196.333 102.95C197.368 101.072 198.04 98.9989 198.31 96.8491C198.58 94.6993 198.443 92.5148 197.907 90.4205C197.371 88.3262 196.445 86.3632 195.184 84.6437C193.923 82.9243 192.351 81.482 190.558 80.3995L181.465 74.8995C180.26 74.1798 178.833 73.9887 177.494 74.3679C176.155 74.7471 175.014 75.6659 174.32 76.9235L153.32 115.028C152.97 115.653 152.741 116.345 152.647 117.064C152.553 117.783 152.596 118.514 152.773 119.215C152.95 119.916 153.258 120.574 153.678 121.15C154.099 121.726 154.624 122.21 155.224 122.572C155.823 122.935 156.485 123.17 157.172 123.263C157.859 123.357 158.556 123.307 159.224 123.117C159.893 122.927 160.518 122.6 161.065 122.156C161.613 121.711 162.07 121.158 162.413 120.528L170.288 106.227L174.834 108.977C175.432 109.338 175.955 109.819 176.376 110.391C176.796 110.964 177.104 111.618 177.283 112.316C177.462 113.014 177.508 113.741 177.418 114.458C177.329 115.174 177.105 115.865 176.761 116.491L171.511 126.017C171.141 126.643 170.895 127.34 170.788 128.068C170.68 128.795 170.713 129.538 170.884 130.252C171.056 130.966 171.362 131.637 171.786 132.224C172.209 132.812 172.741 133.304 173.349 133.673C173.958 134.041 174.631 134.277 175.328 134.368C176.026 134.459 176.733 134.402 177.409 134.201C178.085 134 178.716 133.659 179.264 133.198C179.812 132.736 180.266 132.165 180.599 131.517L185.849 121.991C187.779 118.458 188.385 114.3 187.55 110.325C191.252 109.099 194.385 106.469 196.333 102.95ZM187.24 97.4495C186.546 98.7071 185.404 99.6259 184.066 100.005C182.727 100.384 181.299 100.193 180.095 99.4735L175.548 96.7235L180.798 87.1975L185.345 89.9475C186.543 90.6814 187.415 91.8827 187.771 93.2886C188.126 94.6945 187.935 96.1906 187.24 97.4495Z" fill="#39519D"/>
<path d="M163.19 195.096C164.111 195.097 165.016 194.844 165.815 194.365L193.115 177.865C193.712 177.504 194.236 177.023 194.656 176.45C195.076 175.877 195.384 175.222 195.563 174.525C195.741 173.827 195.787 173.099 195.697 172.382C195.607 171.666 195.384 170.975 195.039 170.349C194.694 169.723 194.235 169.175 193.688 168.735C193.141 168.295 192.516 167.972 191.85 167.785C191.184 167.598 190.489 167.55 189.805 167.644C189.122 167.738 188.462 167.972 187.865 168.333L160.565 184.833C159.564 185.439 158.782 186.373 158.339 187.492C157.897 188.61 157.82 189.851 158.119 191.02C158.418 192.189 159.077 193.223 159.994 193.96C160.911 194.697 162.034 195.096 163.19 195.096V195.096Z" fill="#39519D"/>
<path d="M176.304 218.912H176.624L200.06 217.443C201.453 217.355 202.755 216.692 203.68 215.599C204.606 214.505 205.079 213.072 204.995 211.613C204.912 210.154 204.279 208.79 203.235 207.821C202.191 206.851 200.823 206.355 199.43 206.443L175.994 207.912C174.602 207.955 173.283 208.575 172.327 209.637C171.372 210.699 170.858 212.115 170.899 213.574C170.94 215.032 171.533 216.414 172.547 217.415C173.56 218.416 174.912 218.955 176.304 218.912V218.912Z" fill="#39519D"/>
<path d="M147.161 170.368C147.737 170.767 148.381 171.043 149.058 171.18C149.735 171.318 150.432 171.314 151.108 171.17C151.783 171.025 152.425 170.742 152.997 170.338C153.568 169.933 154.058 169.415 154.438 168.812L167.374 148.291C168.085 147.075 168.317 145.616 168.021 144.223C167.724 142.83 166.923 141.612 165.786 140.827C164.648 140.042 163.264 139.75 161.926 140.014C160.587 140.278 159.399 141.077 158.612 142.241L145.676 162.762C144.912 163.978 144.64 165.461 144.919 166.887C145.197 168.312 146.004 169.564 147.161 170.368V170.368Z" fill="#39519D"/>
<path d="M91.7477 277.266L98.7617 273.02C118.948 260.788 142.114 255.023 165.395 256.438L179.911 273.13C180.403 273.696 181.002 274.147 181.67 274.456C182.338 274.765 183.06 274.925 183.791 274.925C184.521 274.925 185.243 274.765 185.911 274.456C186.579 274.147 187.178 273.696 187.67 273.13L211.495 245.735L245.2 256.977C245.894 257.205 246.625 257.28 247.348 257.197C248.071 257.114 248.77 256.874 249.4 256.493C250.03 256.112 250.577 255.597 251.007 254.983C251.437 254.369 251.741 253.667 251.899 252.923L259.459 216.722L294.02 208.797C294.734 208.633 295.407 208.315 295.997 207.863C296.587 207.412 297.08 206.835 297.446 206.172C297.811 205.509 298.04 204.773 298.118 204.012C298.196 203.251 298.122 202.481 297.899 201.751L286.145 163.086C285.722 161.696 284.79 160.539 283.553 159.869C282.315 159.199 280.875 159.071 279.548 159.514C278.221 159.957 277.116 160.934 276.477 162.23C275.837 163.526 275.716 165.035 276.138 166.425L286.145 199.342L253.925 206.723C252.945 206.948 252.047 207.462 251.337 208.205C250.627 208.948 250.135 209.888 249.92 210.914L242.874 244.673L211.448 234.223C210.491 233.909 209.468 233.886 208.5 234.158C207.531 234.429 206.656 234.984 205.977 235.758L183.77 261.261L169.18 244.475L155.498 219.654C154.802 218.39 153.655 217.468 152.31 217.089C150.964 216.711 149.531 216.909 148.324 217.638C147.118 218.368 146.237 219.569 145.876 220.979C145.516 222.388 145.704 223.89 146.4 225.154L157.457 245.223C135.369 245.427 113.696 251.53 94.4882 262.955L68.2014 215.265C87.2544 203.552 103.138 186.939 114.349 166.997L135.9 206.107C136.596 207.371 137.743 208.294 139.089 208.672C140.434 209.05 141.868 208.853 143.074 208.123C144.281 207.394 145.161 206.192 145.522 204.783C145.883 203.373 145.695 201.871 144.998 200.607L118.748 152.977C118.283 152.104 117.594 151.384 116.759 150.898C115.925 150.413 114.977 150.18 114.023 150.227C113.074 150.26 112.151 150.561 111.352 151.099C110.553 151.638 109.909 152.393 109.487 153.285C103.257 166.453 94.8615 178.368 84.6865 188.485L91.4012 166.403C91.706 165.4 91.7295 164.326 91.4689 163.309C91.2083 162.292 90.6746 161.375 89.9312 160.666L65.5659 137.423L89.9365 114.158C90.6799 113.45 91.2136 112.533 91.4742 111.516C91.7347 110.499 91.7112 109.425 91.4064 108.422L81.3947 75.5044L95.5277 72.2649C96.218 72.129 96.8753 71.8493 97.4606 71.4424C98.0459 71.0355 98.5473 70.5097 98.9351 69.8961C99.3229 69.2825 99.5892 68.5936 99.7183 67.8703C99.8474 67.1469 99.8366 66.4038 99.6866 65.6849C99.5365 64.966 99.2503 64.2859 98.8448 63.685C98.4394 63.084 97.9229 62.5745 97.3261 62.1864C96.7293 61.7984 96.0642 61.5398 95.3702 61.4259C94.6762 61.312 93.9675 61.3452 93.2859 61.5234L73.5197 66.0499C72.8062 66.2141 72.1333 66.5326 71.5439 66.9848C70.9546 67.437 70.4618 68.0131 70.0972 68.6762C69.7325 69.3394 69.5039 70.0749 69.4261 70.8359C69.3483 71.5968 69.4229 72.3664 69.6452 73.0954L80.3762 108.4L54.2312 133.359C53.6915 133.874 53.2604 134.502 52.9655 135.202C52.6705 135.902 52.5181 136.658 52.5181 137.423C52.5181 138.188 52.6705 138.945 52.9655 139.645C53.2604 140.345 53.6915 140.973 54.2312 141.488L80.3762 166.447L69.8447 201.168C67.3089 202.983 64.7049 204.721 62.0274 206.338L40.2347 219.511C39.0387 220.245 38.1686 221.446 37.8142 222.85C37.4599 224.254 37.6501 225.748 38.3433 227.006C39.0364 228.264 40.1764 229.183 41.5143 229.564C42.8522 229.944 44.2795 229.755 45.4847 229.037L59.1347 220.787L85.3847 268.411L58.1109 284.911L52.8609 275.391L61.9487 269.891C62.5506 269.532 63.0788 269.053 63.503 268.479C63.9273 267.906 64.239 267.251 64.4204 266.551C64.6019 265.851 64.6493 265.12 64.5601 264.401C64.4708 263.681 64.2466 262.988 63.9005 262.36C63.5543 261.731 63.0929 261.181 62.5429 260.741C61.9929 260.3 61.3651 259.978 60.6958 259.792C60.0264 259.607 59.3286 259.562 58.6426 259.66C57.9566 259.759 57.296 259.998 56.6987 260.365L47.6057 265.865L42.3557 256.344L51.4434 250.844C52.0453 250.486 52.5736 250.006 52.9978 249.433C53.422 248.86 53.7338 248.204 53.9152 247.504C54.0966 246.804 54.1441 246.074 54.0548 245.354C53.9656 244.635 53.7414 243.941 53.3952 243.313C53.049 242.685 52.5876 242.135 52.0376 241.694C51.4876 241.254 50.8599 240.931 50.1905 240.746C49.5211 240.56 48.8234 240.516 48.1374 240.614C47.4514 240.712 46.7907 240.952 46.1934 241.318L37.1004 246.818L29.2254 232.518C28.7778 231.705 28.1391 231.026 27.3699 230.544C26.6007 230.063 25.7268 229.796 24.8312 229.768C23.9397 229.758 23.0595 229.978 22.2684 230.409C21.4772 230.84 20.7996 231.468 20.2952 232.238L0.870192 263.038C0.332582 263.89 0.0321051 264.882 0.00243239 265.903C-0.0272403 266.924 0.215064 267.934 0.702193 268.818L16.4522 297.418C16.913 298.255 17.5757 298.949 18.3738 299.432C19.1718 299.914 20.0771 300.168 20.9987 300.168H21.3137L56.3627 297.968C57.2127 297.935 58.0419 297.684 58.7777 297.237L63.3137 294.487L77.3049 319.869C78.6572 322.33 80.4896 324.464 82.6825 326.133C84.8755 327.801 87.3798 328.966 90.0317 329.552C92.6837 330.138 95.4238 330.131 98.0731 329.532C100.722 328.933 103.221 327.756 105.407 326.076C107.592 324.397 109.415 322.254 110.756 319.786C112.097 317.319 112.926 314.583 113.189 311.757C113.452 308.931 113.144 306.079 112.283 303.386C111.423 300.694 110.03 298.222 108.196 296.131L91.7477 277.266ZM23.9439 288.948L17.6912 277.602L22.2377 274.852C22.8396 274.493 23.3678 274.014 23.792 273.44C24.2163 272.867 24.528 272.212 24.7094 271.512C24.8909 270.812 24.9383 270.081 24.8491 269.362C24.7598 268.642 24.5356 267.949 24.1895 267.321C23.8433 266.692 23.3819 266.142 22.8319 265.702C22.2819 265.261 21.6541 264.939 20.9848 264.753C20.3154 264.568 19.6176 264.523 18.9316 264.621C18.2456 264.72 17.585 264.959 16.9877 265.326L12.4412 268.076L11.4384 266.255L24.3744 245.729L47.3799 287.469L23.9439 288.948ZM102.694 311.124C102.42 313.008 101.594 314.756 100.33 316.126C99.0664 317.496 97.4275 318.42 95.6401 318.772C93.8528 319.124 92.0053 318.884 90.3533 318.088C88.7013 317.291 87.3264 315.976 86.419 314.325L72.4277 288.943L82.4027 282.893L100.489 303.523C101.378 304.535 102.038 305.744 102.42 307.06C102.801 308.376 102.895 309.765 102.694 311.124V311.124Z" fill="#39519D"/>
<path d="M35.6199 32.9235H46.1199V68.6735C46.1199 72.3202 44.7371 75.8176 42.2757 78.3962C39.8143 80.9749 36.4759 82.4235 32.9949 82.4235C26.7292 82.4235 20.7201 85.0311 16.2896 89.6726C11.859 94.3141 9.36995 100.609 9.36995 107.174V225.424C9.36995 226.882 9.92307 228.281 10.9076 229.313C11.8922 230.344 13.2276 230.924 14.62 230.924C16.0123 230.924 17.3477 230.344 18.3323 229.313C19.3168 228.281 19.87 226.882 19.87 225.424V107.174C19.87 103.527 21.2528 100.029 23.7142 97.4508C26.1756 94.8722 29.514 93.4235 32.9949 93.4235C39.2586 93.4162 45.2636 90.8063 49.6927 86.1664C54.1217 81.5264 56.613 75.2354 56.6199 68.6735V32.9235H67.1199C68.0949 32.9235 69.0507 32.6391 69.88 32.1021C70.7094 31.5651 71.3797 30.7968 71.8157 29.8832C72.2517 28.9696 72.4363 27.9469 72.3487 26.9296C72.2612 25.9123 71.9049 24.9406 71.32 24.1235L55.57 2.12351C55.0597 1.47386 54.4185 0.950633 53.6923 0.591415C52.9661 0.232196 52.173 0.0458984 51.3699 0.0458984C50.5669 0.0458984 49.7738 0.232196 49.0476 0.591415C48.3214 0.950633 47.6802 1.47386 47.1699 2.12351L31.4199 24.1235C30.835 24.9406 30.4787 25.9123 30.3912 26.9296C30.3036 27.9469 30.4882 28.9696 30.9242 29.8832C31.3602 30.7968 32.0305 31.5651 32.8599 32.1021C33.6892 32.6391 34.645 32.9235 35.6199 32.9235V32.9235ZM51.3699 14.592L56.6199 21.9235H46.1199L51.3699 14.592Z" fill="#39519D"/>
<path d="M286.57 249.624C286.06 248.974 285.418 248.451 284.692 248.091C283.966 247.732 283.173 247.546 282.37 247.546C281.567 247.546 280.774 247.732 280.048 248.091C279.321 248.451 278.68 248.974 278.17 249.624L262.42 271.624C261.835 272.441 261.479 273.412 261.391 274.43C261.304 275.447 261.488 276.47 261.924 277.383C262.36 278.297 263.03 279.065 263.86 279.602C264.689 280.139 265.645 280.424 266.62 280.424H278.27V302.424C278.27 306.8 276.61 310.996 273.657 314.091C270.703 317.185 266.697 318.923 262.52 318.923H136.52C135.127 318.923 133.792 319.503 132.807 320.534C131.823 321.566 131.27 322.965 131.27 324.423C131.27 325.882 131.823 327.281 132.807 328.313C133.792 329.344 135.127 329.923 136.52 329.923H262.52C269.479 329.915 276.151 327.015 281.072 321.859C285.993 316.704 288.761 309.714 288.77 302.424V280.424H298.12C299.095 280.424 300.051 280.139 300.88 279.602C301.709 279.065 302.38 278.297 302.816 277.383C303.252 276.47 303.436 275.447 303.349 274.43C303.261 273.412 302.905 272.441 302.32 271.624L286.57 249.624ZM282.37 262.092L287.62 269.424H277.12L282.37 262.092Z" fill="#39519D"/>
<path d="M15.7698 71.4233C18.8849 71.4233 21.93 70.4556 24.52 68.6426C27.1101 66.8295 29.1288 64.2526 30.3209 61.2376C31.513 58.2226 31.8249 54.905 31.2172 51.7044C30.6095 48.5037 29.1094 45.5636 26.9067 43.2561C24.7041 40.9485 21.8977 39.377 18.8425 38.7404C15.7873 38.1037 12.6205 38.4305 9.74254 39.6793C6.86461 40.9282 4.40479 43.043 2.67416 45.7564C0.943527 48.4698 0.0198059 51.66 0.0198059 54.9233C0.0198059 59.2994 1.67918 63.4963 4.63287 66.5906C7.58657 69.685 11.5926 71.4233 15.7698 71.4233ZM15.7698 49.4233C16.8082 49.4233 17.8232 49.7459 18.6865 50.3503C19.5499 50.9546 20.2228 51.8136 20.6202 52.8186C21.0175 53.8236 21.1215 54.9294 20.9189 55.9963C20.7164 57.0632 20.2163 58.0432 19.4821 58.8124C18.7479 59.5816 17.8124 60.1054 16.794 60.3177C15.7756 60.5299 14.72 60.421 13.7607 60.0047C12.8014 59.5884 11.9815 58.8835 11.4046 57.979C10.8277 57.0745 10.5198 56.0111 10.5198 54.9233C10.5198 53.4647 11.0729 52.0657 12.0575 51.0343C13.0421 50.0028 14.3774 49.4233 15.7698 49.4233Z" fill="#39519D"/>
<path d="M225.77 285.923C227.162 285.923 228.497 286.503 229.482 287.534C230.467 288.566 231.02 289.965 231.02 291.423C231.02 292.882 231.573 294.281 232.557 295.313C233.542 296.344 234.877 296.923 236.27 296.923C237.662 296.923 238.997 296.344 239.982 295.313C240.967 294.281 241.52 292.882 241.52 291.423C241.52 288.16 240.596 284.97 238.865 282.257C237.135 279.543 234.675 277.428 231.797 276.179C228.919 274.931 225.752 274.604 222.697 275.241C219.642 275.877 216.835 277.449 214.633 279.756C212.43 282.064 210.93 285.004 210.322 288.204C209.715 291.405 210.027 294.723 211.219 297.738C212.411 300.753 214.429 303.33 217.019 305.143C219.61 306.956 222.655 307.923 225.77 307.923C227.162 307.923 228.497 307.344 229.482 306.313C230.467 305.281 231.02 303.882 231.02 302.423C231.02 300.965 230.467 299.566 229.482 298.534C228.497 297.503 227.162 296.923 225.77 296.923C224.377 296.923 223.042 296.344 222.057 295.313C221.073 294.281 220.52 292.882 220.52 291.423C220.52 289.965 221.073 288.566 222.057 287.534C223.042 286.503 224.377 285.923 225.77 285.923Z" fill="#39519D"/>
<path d="M55.6697 170.847C54.6852 169.816 53.35 169.237 51.9579 169.237C50.5658 169.237 49.2307 169.816 48.2462 170.847L44.5292 174.741L40.8174 170.847C39.8273 169.845 38.5011 169.291 37.1246 169.303C35.748 169.316 34.4313 169.894 33.4579 170.914C32.4845 171.934 31.9324 173.313 31.9204 174.755C31.9084 176.197 32.4376 177.587 33.3939 178.624L37.1057 182.518L33.3939 186.406C32.8729 186.908 32.454 187.515 32.1625 188.191C31.871 188.866 31.713 189.597 31.6978 190.338C31.6826 191.079 31.8107 191.816 32.0743 192.504C32.3379 193.192 32.7316 193.818 33.2317 194.342C33.7317 194.867 34.3279 195.28 34.9844 195.557C35.6408 195.834 36.344 195.97 37.0516 195.955C37.7592 195.94 38.4566 195.775 39.102 195.471C39.7473 195.167 40.3273 194.729 40.8069 194.183L44.5187 190.295L48.2357 194.183C49.2201 195.216 50.5558 195.797 51.949 195.798C53.3421 195.799 54.6786 195.22 55.6644 194.189C56.6502 193.158 57.2046 191.758 57.2056 190.299C57.2066 188.839 56.6541 187.439 55.6697 186.406L51.9422 182.523L55.6592 178.629C56.148 178.119 56.5361 177.513 56.8012 176.846C57.0663 176.179 57.2032 175.463 57.2042 174.74C57.2052 174.018 57.0702 173.302 56.8068 172.634C56.5435 171.966 56.1571 171.358 55.6697 170.847V170.847Z" fill="#39519D"/>
<path d="M312.92 214.847C311.935 213.816 310.6 213.237 309.208 213.237C307.816 213.237 306.481 213.816 305.496 214.847L301.779 218.741L298.067 214.847C297.077 213.845 295.751 213.291 294.375 213.303C292.998 213.316 291.681 213.894 290.708 214.914C289.734 215.934 289.182 217.313 289.17 218.755C289.158 220.197 289.688 221.587 290.644 222.624L294.356 226.518L290.644 230.406C290.142 230.914 289.743 231.521 289.467 232.192C289.192 232.863 289.047 233.584 289.041 234.315C289.035 235.045 289.168 235.769 289.432 236.445C289.696 237.121 290.086 237.735 290.579 238.252C291.072 238.768 291.658 239.176 292.303 239.453C292.948 239.729 293.64 239.869 294.337 239.862C295.034 239.856 295.723 239.704 296.363 239.416C297.004 239.128 297.583 238.709 298.067 238.183L301.779 234.295L305.496 238.183C306.486 239.185 307.812 239.74 309.189 239.727C310.566 239.715 311.882 239.136 312.856 238.116C313.829 237.097 314.381 235.717 314.393 234.275C314.405 232.833 313.876 231.444 312.92 230.406L309.192 226.523L312.909 222.629C313.398 222.119 313.786 221.513 314.051 220.846C314.316 220.179 314.453 219.463 314.454 218.74C314.455 218.018 314.32 217.302 314.057 216.634C313.794 215.966 313.407 215.358 312.92 214.847V214.847Z" fill="#39519D"/>
<defs>
<filter id="filter0_d" x="103.241" y="0" width="215.802" height="165.175" filterUnits="userSpaceOnUse" color-interpolation-filters="sRGB">
<feFlood flood-opacity="0" result="BackgroundImageFix"/>
<feColorMatrix in="SourceAlpha" type="matrix" values="0 0 0 0 0 0 0 0 0 0 0 0 0 0 0 0 0 0 127 0" result="hardAlpha"/>
<feOffset dy="4"/>
<feGaussianBlur stdDeviation="2"/>
<feComposite in2="hardAlpha" operator="out"/>
<feColorMatrix type="matrix" values="0 0 0 0 0 0 0 0 0 0 0 0 0 0 0 0 0 0 0.25 0"/>
<feBlend mode="normal" in2="BackgroundImageFix" result="effect1_dropShadow"/>
<feBlend mode="normal" in="SourceGraphic" in2="effect1_dropShadow" result="shape"/>
</filter>
</defs>
</svg>
